# xmcd
#
# Track frame offsets:
#	150
#	20707
#	38305
#	59520
#	77707
#
# Disc length: 1277 seconds
#
# Revision: 3
# Processed by: cddbd v1.5.1PL0 Copyright (c) Steve Scherf et al.
# Submitted via: EasyCDDAExtractor 6.2.0.3
#
DISCID=3404fb05
DTITLE=Noreaga - Oh No CDS
DYEAR=1999
DGENRE=HipHop
TTITLE0=Oh No (Radio Edit)
TTITLE1=Oh No (Karl 'K-Gee' Gordon Radio Edit)
TTITLE2=Oh No (Karl 'K-Gee' Gordon 2000 Mix)
TTITLE3=Oh No (Soul Society Clean Radio Edit)
TTITLE4=Oh No (Clean Radio Remix feat Capone, Jadakiss, Big Punisher, Maze and M
TTITLE4=usalini and Angie Martinez)
EXTD=
EXTT0=
EXTT1=
EXTT2=
EXTT3=
EXTT4=
PLAYORDER=
